<?xml version="1.0" encoding="iso-8859-1"?>
<!-- Generator: Adobe Illustrator 22.1.0, SVG Export Plug-In . SVG Version: 6.00 Build 0)  -->
<svg xmlns="http://www.w3.org/2000/svg" xmlns:xlink="http://www.w3.org/1999/xlink" version="1.1" id="Layer_1_1_" x="0px" y="0px" viewBox="0 0 64 64" style="enable-background:new 0 0 64 64;" xml:space="preserve" width="512" height="512">
<g>
	<path style="fill:#F0BC5E;" d="M50,52c0,1.01-0.25,1.97-0.7,2.81v0.02C48.55,54.94,47.78,55,47,55c-8.28,0-15-6.72-15-15   c0-0.57,0.03-1.14,0.1-1.69C32.7,38.11,33.34,38,34,38h3.54c0.95,0,1.86,0.32,2.6,0.91l2.3,1.84C43.43,41.54,44,42.74,44,44   c0,1.79,1.15,3.38,2.85,3.95l0.3,0.1C48.85,48.62,50,50.21,50,52z"/>
	<path style="fill:#F0BC5E;" d="M61.96,39.01C61.99,39.34,62,39.67,62,40c0,5.06-2.51,9.54-6.36,12.25   C54.61,50.64,54,48.72,54,46.67c0-1.48-1.19-2.67-2.67-2.67C49.49,44,48,42.51,48,40.67c0-1.05,0.49-2.04,1.33-2.67l1.78-1.33   c0.58-0.44,1.28-0.67,2-0.67h1.56c2.84,0,5.41,1.15,7.28,3.01H61.96z"/>
	<path style="fill:#F0BC5E;" d="M56,28.2v0.43c0,1.86-1.51,3.37-3.37,3.37h-0.51c-0.73,0-1.44,0.24-2.02,0.67   C48.09,34.18,45.64,35,43.12,35H42.8c-1.12,0-2.18-0.56-2.8-1.5S38.32,32,37.2,32c-0.89,0-1.72-0.24-2.45-0.64   C37.46,27.51,41.94,25,47,25c3.37,0,6.49,1.12,8.99,3l-0.01,0.01C55.98,28.07,56,28.13,56,28.2z"/>
	<path style="fill:#F0BC5E;" d="M26,8H4c-1.654,0-3,1.346-3,3v14c0,1.654,1.346,3,3,3h1h20h1c1.654,0,3-1.346,3-3V11   C29,9.346,27.654,8,26,8z"/>
	<rect x="10" y="33" style="fill:#F0BC5E;" width="10" height="5"/>
	<path style="fill:#F0BC5E;" d="M51,7h-4v0c0-3.314,2.686-6,6-6h4v0C57,4.314,54.314,7,51,7z"/>
	<path style="fill:#F0BC5E;" d="M43,7h4v0c0-3.314-2.686-6-6-6h-4v0C37,4.314,39.686,7,43,7z"/>
	<path style="fill:#F0BC5E;" d="M52,19h-4v0c0-3.314,2.686-6,6-6h4v0C58,16.314,55.314,19,52,19z"/>
	<path style="fill:#F0BC5E;" d="M42,19h4v0c0-3.314-2.686-6-6-6h-4v0C36,16.314,38.686,19,42,19z"/>
	<g>
		<rect x="11" y="16" width="2" height="4"/>
		<rect x="17" y="16" width="2" height="4"/>
		<polygon points="9,22 7,22 7,14 23,14 23,22 21,22 21,24 25,24 25,12 5,12 5,24 9,24   "/>
		<path d="M63,40c0-8.485-6.644-15.429-15-15.949V7h-2v17.051C37.644,24.571,31,31.515,31,40s6.644,15.429,15,15.949V58    c0,1.654-1.346,3-3,3h-8c-1.654,0-3-1.346-3-3v-5c0-2.757-2.243-5-5-5s-5,2.243-5,5v5c0,1.654-1.346,3-3,3s-3-1.346-3-3V46    c2.757,0,5-2.243,5-5v-7h2v-6h-4v-6h-2v6h-4v-6h-2v6H7v6h2v7c0,2.757,2.243,5,5,5v12c0,2.757,2.243,5,5,5s5-2.243,5-5v-5    c0-1.654,1.346-3,3-3s3,1.346,3,3v5c0,2.757,2.243,5,5,5h8c2.757,0,5-2.243,5-5v-2.051C56.356,55.429,63,48.485,63,40z M9,30h12v2    H9V30z M11,41v-7h8v7c0,1.654-1.346,3-3,3h-2C12.346,44,11,42.654,11,41z M47,54c-7.72,0-14-6.28-14-14    c0-7.382,5.747-13.433,13-13.949V30h2v-3.949C55.253,26.567,61,32.618,61,40C61,47.72,54.72,54,47,54z"/>
	</g>
</g>
</svg>
