<?xml version="1.0" encoding="iso-8859-1"?>
<!-- Generator: Adobe Illustrator 19.0.0, SVG Export Plug-In . SVG Version: 6.00 Build 0)  -->
<svg version="1.1" id="Capa_1" xmlns="http://www.w3.org/2000/svg" xmlns:xlink="http://www.w3.org/1999/xlink" x="0px" y="0px"
	 viewBox="0 0 498.704 498.704" style="enable-background:new 0 0 498.704 498.704;" xml:space="preserve">
<path style="fill:#333333;" d="M324.392,66.704L249.352,0l-75.04,66.704H1.352v28.088l25.504,18.416l9.376-12.968l-18.88-13.624
	v-3.912h150.456l-17.736,99.76L116,157.856l-9.376,12.968l40.336,29.128l-41.48,233.352l-0.128,9.4h8l5.488,5.824l68.536-64.504
	l55.96,63.952l6.016-5.272l6.024,5.272l55.96-63.952l68.536,64.504l5.48-5.824h8v-8l-41.648-234.72l34.672-25.04L377,161.976
	l-28.4,20.512l-0.176-1.008l0.208-0.152l-0.312-0.432l-17.424-98.192h150.456v3.912l-24.064,17.376l9.376,12.968l30.688-22.168
	V66.704H324.392z M231.208,194.704l-33.8,37.008l-27.616-37.008H231.208z M170.16,178.704l34.016-45.784l30.288,45.784H170.16z
	 M241.352,207.32v83.28l-34.2-45.832L241.352,207.32z M233.4,306.704h-82.824L196.16,256.8L233.4,306.704z M257.352,207.528
	l34.048,37.776l-34.048,45.4V207.528z M267.336,194.704h62.016l-28.168,37.552L267.336,194.704z M214.32,119.264l27.032-36.384
	v77.232L214.32,119.264z M204.936,105.072l-14.808-22.368h31.424L204.936,105.072z M194.784,118.736l-22.528,30.32l9.016-50.736
	L194.784,118.736z M186.416,243.744l-38.48,42.128l13.456-75.664L186.416,243.744z M229.176,322.704L188.488,361l-33.504-38.296
	H229.176z M265.352,306.704l36.968-49.288l44.424,49.288h-41.392v16h38.368L310.216,361l-40.688-38.296h19.824v-16H265.352z
	 M312.104,244.368l25.288-33.72l13.68,76.96L312.104,244.368z M264.176,178.704l29.744-45.288l33.016,45.288H264.176z
	 M257.352,159.952V83.248l26.496,36.352L257.352,159.952z M276.744,82.704h31.336l-14.856,22.616L276.744,82.704z M257.352,66.704
	V28.52l42.96,38.184H257.352z M241.352,28.52v38.184h-42.96L241.352,28.52z M123.744,421.936l16.344-91.944l36.736,41.984
	L123.744,421.936z M241.352,333.216V421.4l-42.312-48.36L241.352,333.216z M257.352,421.408v-88.192l42.312,39.824L257.352,421.408z
	 M358.608,329.992l16.344,91.944l-53.08-49.96L358.608,329.992z M303.296,119.136l14.032-21.36l9.544,53.704L303.296,119.136z"/>
<g>
	<path style="fill:#FFA64D;" d="M441.352,90.704c-17.648,0-32,14.352-32,32c0,0.4,0.104,0.776,0.12,1.176
		c-2.608-0.696-5.296-1.176-8.12-1.176c-17.648,0-32,14.352-32,32s14.352,32,32,32s32-14.352,32-32c0-0.4-0.104-0.776-0.12-1.176
		c2.608,0.696,5.296,1.176,8.12,1.176c17.648,0,32-14.352,32-32S459,90.704,441.352,90.704z M401.352,170.704
		c-8.824,0-16-7.176-16-16s7.176-16,16-16s16,7.176,16,16S410.176,170.704,401.352,170.704z M441.352,138.704
		c-8.824,0-16-7.176-16-16s7.176-16,16-16s16,7.176,16,16S450.176,138.704,441.352,138.704z"/>
	<path style="fill:#FFA64D;" d="M89.352,122.704c-2.824,0-5.512,0.48-8.12,1.176c0.016-0.4,0.12-0.776,0.12-1.176
		c0-17.648-14.352-32-32-32s-32,14.352-32,32s14.352,32,32,32c2.824,0,5.512-0.48,8.12-1.176c-0.016,0.4-0.12,0.776-0.12,1.176
		c0,17.648,14.352,32,32,32s32-14.352,32-32S107,122.704,89.352,122.704z M33.352,122.704c0-8.824,7.176-16,16-16s16,7.176,16,16
		s-7.176,16-16,16S33.352,131.528,33.352,122.704z M89.352,170.704c-8.824,0-16-7.176-16-16s7.176-16,16-16s16,7.176,16,16
		S98.176,170.704,89.352,170.704z"/>
	<path style="fill:#FFA64D;" d="M409.352,498.704h-320v-64h320V498.704z"/>
</g>
<g>
</g>
<g>
</g>
<g>
</g>
<g>
</g>
<g>
</g>
<g>
</g>
<g>
</g>
<g>
</g>
<g>
</g>
<g>
</g>
<g>
</g>
<g>
</g>
<g>
</g>
<g>
</g>
<g>
</g>
</svg>
