<?xml version="1.0" encoding="iso-8859-1"?>
<!-- Generator: Adobe Illustrator 19.0.0, SVG Export Plug-In . SVG Version: 6.00 Build 0)  -->
<svg version="1.1" id="Capa_1" xmlns="http://www.w3.org/2000/svg" xmlns:xlink="http://www.w3.org/1999/xlink" x="0px" y="0px"
	 viewBox="0 0 496 496" style="enable-background:new 0 0 496 496;" xml:space="preserve">
<g>
	<rect x="56" y="344" style="fill:#FFCB57;" width="192" height="48"/>
	<rect x="360" y="408" style="fill:#FFCB57;" width="64" height="80"/>
</g>
<g>
	<rect x="64" y="144" style="fill:#E56565;" width="56" height="16"/>
	<rect x="184" y="144" style="fill:#E56565;" width="56" height="16"/>
	<rect x="64" y="176" style="fill:#E56565;" width="56" height="16"/>
	<rect x="184" y="176" style="fill:#E56565;" width="56" height="16"/>
</g>
<g>
	<path style="fill:#3F3A34;" d="M264,304h-8v-32H48v32h-8c-22.056,0-40,17.944-40,40v152h304V344C304,321.944,286.056,304,264,304z
		 M240,304h-16v-16h16V304z M96,304v-16h16v16H96z M128,288h16v16h-16V288z M160,288h16v16h-16V288z M192,288h16v16h-16V288z
		 M64,288h16v16H64V288z M88,480H56v-32c0-8.824,7.176-16,16-16s16,7.176,16,16V480z M168,480h-32v-32c0-8.824,7.176-16,16-16
		s16,7.176,16,16V480z M248,480h-32v-32c0-8.824,7.176-16,16-16s16,7.176,16,16V480z M288,480h-24v-32c0-17.648-14.352-32-32-32
		s-32,14.352-32,32v32h-16v-32c0-17.648-14.352-32-32-32s-32,14.352-32,32v32h-16v-32c0-17.648-14.352-32-32-32s-32,14.352-32,32v32
		H16V344c0-13.232,10.768-24,24-24h224c13.232,0,24,10.768,24,24V480z"/>
	<path style="fill:#3F3A34;" d="M48,400h208v-64H48V400z M144,384h-32v-32h32V384z M160,352h32v32h-32V352z M240,384h-32v-32h32V384
		z M64,352h32v32H64V352z"/>
	<polygon style="fill:#3F3A34;" points="79.2,112 104.8,112 120.04,256.832 135.96,255.168 119.2,96 64.8,96 48.04,255.168 
		63.96,256.832 	"/>
	<polygon style="fill:#3F3A34;" points="199.2,112 224.8,112 240.04,256.832 255.96,255.168 239.2,96 184.8,96 168.04,255.168 
		183.96,256.832 	"/>
	<path style="fill:#3F3A34;" d="M464,112V80H320v32h-32v184h16V128h176v352h-48v-80h-80v80h-32v16h176V112H464z M448,112h-16V96h16
		V112z M400,96h16v16h-16V96z M384,112h-16V96h16V112z M336,96h16v16h-16V96z M368,416h48v64h-48V416z"/>
	<rect x="336" y="152" style="fill:#3F3A34;" width="16" height="16"/>
	<rect x="384" y="152" style="fill:#3F3A34;" width="16" height="16"/>
	<rect x="432" y="152" style="fill:#3F3A34;" width="16" height="16"/>
	<rect x="336" y="200" style="fill:#3F3A34;" width="16" height="16"/>
	<rect x="384" y="200" style="fill:#3F3A34;" width="16" height="16"/>
	<rect x="432" y="200" style="fill:#3F3A34;" width="16" height="16"/>
	<rect x="336" y="248" style="fill:#3F3A34;" width="16" height="16"/>
	<rect x="384" y="248" style="fill:#3F3A34;" width="16" height="16"/>
	<rect x="432" y="248" style="fill:#3F3A34;" width="16" height="16"/>
	<rect x="336" y="296" style="fill:#3F3A34;" width="16" height="16"/>
	<rect x="384" y="296" style="fill:#3F3A34;" width="16" height="16"/>
	<rect x="432" y="296" style="fill:#3F3A34;" width="16" height="16"/>
	<rect x="336" y="344" style="fill:#3F3A34;" width="16" height="16"/>
	<rect x="384" y="344" style="fill:#3F3A34;" width="16" height="16"/>
	<rect x="432" y="344" style="fill:#3F3A34;" width="16" height="16"/>
	<polygon style="fill:#3F3A34;" points="352,45.192 417.696,16 432,16 432,64 448,64 448,0 414.304,0 336,34.808 336,64 352,64 	"/>
</g>
<g>
</g>
<g>
</g>
<g>
</g>
<g>
</g>
<g>
</g>
<g>
</g>
<g>
</g>
<g>
</g>
<g>
</g>
<g>
</g>
<g>
</g>
<g>
</g>
<g>
</g>
<g>
</g>
<g>
</g>
</svg>
