<?xml version="1.0" encoding="iso-8859-1"?>
<!-- Generator: Adobe Illustrator 19.0.0, SVG Export Plug-In . SVG Version: 6.00 Build 0)  -->
<svg version="1.1" id="Capa_1" xmlns="http://www.w3.org/2000/svg" xmlns:xlink="http://www.w3.org/1999/xlink" x="0px" y="0px"
	 viewBox="0 0 512 512" style="enable-background:new 0 0 512 512;" xml:space="preserve">
<path style="fill:#FFA64D;" d="M328.336,270.568c-12.504,4.472-26.32-1.864-30.872-14.16c-4.552-12.296,1.896-25.888,14.4-30.36
	l5.704-2.048H194.432l5.712,2.048c12.504,4.472,18.944,18.064,14.4,30.36c-4.552,12.296-18.376,18.632-30.872,14.16L136,253.504V384
	h240V253.504L328.336,270.568z"/>
<g>
	<path style="fill:#333333;" d="M477.08,176.096c-2.272-1.984-4.728-3.728-7.448-5C494.984,155.632,512,127.8,512,96
		c0-48.52-39.48-88-88-88s-88,39.48-88,88c0,43.504,31.768,79.64,73.304,86.672L309.16,218.52
		c-8.128,2.904-14.592,8.784-18.208,16.536c-3.568,7.656-3.92,16.224-0.992,24.128C294.704,272.016,307.04,280,320.136,280
		c3.624,0,7.304-0.608,10.896-1.896L376,262v42v8v132.688l-16.68,16.68c-4.656,4.648-7.32,11.088-7.32,17.664
		C352,492.8,363.2,504,376.968,504h32H416h64c13.232,0,24-10.768,24-24v-32v-8V312v-8v-80
		C504,203.72,493.344,185.928,477.08,176.096z M471.032,194.368c1.432,3.872,1.264,8.072-0.488,11.816
		c-1.8,3.848-5.024,6.776-9.104,8.232l-37.816,13.536l-10.92-29.512l37.656-13.48c0.784-0.28,1.576-0.464,2.368-0.624
		c5.496,0.648,10.56,2.416,15.096,5C469.16,190.792,470.312,192.424,471.032,194.368z M352,96c0-39.696,32.304-72,72-72
		s72,32.304,72,72s-32.304,72-72,72S352,135.696,352,96z M325.64,263.032c-8.376,2.992-17.648-1.216-20.672-9.4
		c-1.432-3.872-1.264-8.072,0.488-11.816c1.8-3.848,5.024-6.776,9.104-8.232l83.088-29.744l10.92,29.512L325.64,263.032z
		 M368,479.032c0-2.36,0.96-4.672,2.632-6.344L387.312,456h9.376l-5.368,5.368c-4.656,4.648-7.32,11.088-7.32,17.664
		c0,3.168,0.656,6.176,1.736,8.968h-8.768C372.024,488,368,483.976,368,479.032z M488,480c0,4.416-3.592,8-8,8h-64h-7.032
		c-4.944,0-8.968-4.024-8.968-8.968c0-2.36,0.96-4.672,2.632-6.344L419.312,456H488V480z M488,440h-64v-16h-16v16h-16V312h16v96h16
		v-96h64V440z M488,296h-96v-39.728l74.84-26.784c8.128-2.904,14.592-8.784,18.208-16.536c0.296-0.632,0.432-1.304,0.688-1.944
		C487.128,215.096,488,219.432,488,224V296z"/>
	<path style="fill:#333333;" d="M202.84,218.512l-100.144-35.848C144.232,175.64,176,139.504,176,96c0-48.52-39.48-88-88-88
		S0,47.48,0,96c0,31.808,17.016,59.64,42.368,75.104c-2.712,1.272-5.168,3.016-7.44,4.992C18.664,185.92,8,203.712,8,224v80v8v128v8
		v32c0,13.232,10.768,24,24,24h64h7.032h32C148.8,504,160,492.8,160,479.032c0-6.576-2.664-13.016-7.32-17.656L136,444.688V312v-8
		v-42l44.976,16.096c3.592,1.288,7.272,1.896,10.896,1.896c13.096,0,25.432-7.984,30.176-20.808
		c2.928-7.912,2.576-16.48-0.992-24.136C217.432,227.296,210.968,221.424,202.84,218.512z M50.552,214.424
		c-4.072-1.456-7.304-4.384-9.104-8.232c-1.744-3.744-1.92-7.944-0.488-11.824c0.72-1.944,1.872-3.568,3.2-5.024
		c4.544-2.592,9.608-4.36,15.104-5c0.792,0.16,1.584,0.344,2.368,0.624l37.656,13.48l-10.92,29.512L50.552,214.424z M16,96
		c0-39.696,32.304-72,72-72s72,32.304,72,72s-32.304,72-72,72S16,135.696,16,96z M24,312h64v128H24V312z M96,488H32
		c-4.408,0-8-3.584-8-8v-24h68.688l16.688,16.696c1.664,1.664,2.624,3.976,2.624,6.336c0,4.944-4.024,8.968-8.968,8.968H96z
		 M144,479.032c0,4.944-4.024,8.968-8.968,8.968h-8.768c1.08-2.792,1.736-5.8,1.736-8.968c0-6.576-2.664-13.016-7.32-17.656
		L115.312,456h9.376l16.688,16.696C143.04,474.36,144,476.672,144,479.032z M120,440h-16V312h16V440z M120,296H24v-72
		c0-4.568,0.864-8.904,2.264-13c0.248,0.648,0.392,1.312,0.688,1.944c3.616,7.752,10.08,13.632,18.208,16.536L120,256.272V296z
		 M207.032,253.632c-3.024,8.184-12.304,12.4-20.672,9.4l-82.928-29.68l10.92-29.512l83.088,29.744
		c4.072,1.456,7.304,4.384,9.104,8.232C208.296,245.56,208.472,249.76,207.032,253.632z"/>
	<path style="fill:#333333;" d="M264,256.8V240h-16v16.8c-13.536,1.96-24,13.528-24,27.592c0,15.44,12.56,28,28,28h8
		c6.616,0,12,5.384,12,12s-5.384,12-12,12h-8c-6.616,0-12-5.384-12-12v-4h-16v4c0,14.064,10.464,25.632,24,27.592V368h16v-16.008
		c13.536-1.96,24-13.528,24-27.592c0-15.44-12.56-28-28-28h-8c-6.616,0-12-5.384-12-12s5.384-12,12-12h8c6.616,0,12,5.384,12,12v4
		h16v-4C288,270.328,277.536,258.768,264,256.8z"/>
</g>
<g>
</g>
<g>
</g>
<g>
</g>
<g>
</g>
<g>
</g>
<g>
</g>
<g>
</g>
<g>
</g>
<g>
</g>
<g>
</g>
<g>
</g>
<g>
</g>
<g>
</g>
<g>
</g>
<g>
</g>
</svg>
