<?xml version="1.0" encoding="iso-8859-1"?>
<!-- Generator: Adobe Illustrator 19.0.0, SVG Export Plug-In . SVG Version: 6.00 Build 0)  -->
<svg version="1.1" id="Capa_1" xmlns="http://www.w3.org/2000/svg" xmlns:xlink="http://www.w3.org/1999/xlink" x="0px" y="0px"
	 viewBox="0 0 496 496" style="enable-background:new 0 0 496 496;" xml:space="preserve">
<g>
	<path style="fill:#FFA64D;" d="M300,168c17.672,0,32,14.328,32,32s-14.328,32-32,32c-0.512,0-0.992-0.128-1.496-0.152l0.176,4.72
		h17.336c30.112,7,57.2,21.8,79.176,42.056C437.112,271.384,468,235.264,468,192c0-48.52-39.48-88-88-88
		c-38.648,0-72.4,24.76-83.968,61.6l0.104,2.792C297.416,168.232,298.68,168,300,168z"/>
	<path style="fill:#FFA64D;" d="M220,200c0-17.672,14.328-32,32-32c1.92,0,3.768,0.288,5.6,0.608
		C264.416,153.28,268,136.968,268,120C268,53.832,214.168,0,148,0S28,53.832,28,120s53.832,120,120,120
		c27.32,0,53.84-9.432,75.088-26.496C221.16,209.392,220,204.848,220,200z"/>
</g>
<g>
	<path style="fill:#333333;" d="M379.816,256H388v-16.408c13.536-1.96,24-13.528,24-27.592c0-15.44-12.56-28-28-28h-8
		c-6.616,0-12-5.384-12-12s5.384-12,12-12h8c6.616,0,12,5.384,12,12v4h16v-4c0-14.064-10.464-25.632-24-27.592V128h-16v16.408
		c-13.536,1.96-24,13.528-24,27.592c0,15.44,12.56,28,28,28h8c6.616,0,12,5.384,12,12s-5.384,12-12,12h-8c-6.616,0-12-5.384-12-12
		v-4h-16v4c0,14.064,10.464,25.632,24,27.592v11.344c-14.32-8.704-30.024-15.488-46.816-20.12C334.152,223.48,340,212.464,340,200
		c0-22.056-17.944-40-40-40c-8.984,0-17.2,3.088-23.888,8.112C269.216,162.904,260.768,160,252,160c-22.056,0-40,17.944-40,40
		c0,12.464,5.848,23.48,14.816,30.816C147.096,252.808,92,324.504,92,408v32c0,30.872,25.12,56,56,56h256c30.88,0,56-25.128,56-56
		v-32C460,345.368,428.944,289.392,379.816,256z M443.496,396.152c-22.336-49.288-65.856-87.2-119.496-101.68V247.08
		C391.344,267.016,438.664,326.104,443.496,396.152z M304.688,480h-57.376l-20-20L276,411.312L324.688,460L304.688,480z
		 M336,471.312l8.688,8.688h-17.376L336,471.312z M224.688,480h-17.376l8.688-8.688L224.688,480z M308,240v64h-64v-64H308z
		 M296.688,320l24,24L276,388.688L231.312,344l24-24H296.688z M319.312,320H324v-8.952c7.424,2.208,14.592,4.944,21.528,8.112
		L332,332.688L319.312,320z M232.688,320L220,332.688l-13.528-13.528c6.936-3.168,14.112-5.904,21.528-8.112V320H232.688z
		 M191.528,326.84l17.16,17.16L160,392.688l-19.56-19.56C154.056,354.432,171.4,338.6,191.528,326.84z M220,355.312L264.688,400
		L216,448.688L171.312,404L220,355.312z M287.312,400L332,355.312L380.688,404L336,448.688L287.312,400z M343.312,344l17.16-17.16
		c20.12,11.76,37.472,27.592,51.088,46.288L392,392.688L343.312,344z M300,176c13.232,0,24,10.768,24,24s-10.768,24-24,24
		s-24-10.768-24-24S286.768,176,300,176z M252,176c4.848,0,9.504,1.544,13.448,4.216C262.08,186.08,260,192.768,260,200
		s2.08,13.92,5.448,19.784c-3.944,2.672-8.6,4.216-13.448,4.216c-13.232,0-24-10.768-24-24S238.768,176,252,176z M228,247.08v47.392
		c-53.64,14.48-97.16,52.392-119.496,101.68C113.336,326.112,160.656,267.016,228,247.08z M114.184,461.136l20.552-20.544
		l-11.312-11.312l-12.464,12.456c3.592-19.688,10.648-38.208,20.52-54.944L148.688,404l-13.256,13.256l11.312,11.312L160,415.312
		L204.688,460l-20,20H148C133.72,480,121.256,472.424,114.184,461.136z M404,480h-36.688l-20-20L392,415.312l19.376,19.376
		l11.312-11.312L403.312,404l17.216-17.216c9.864,16.736,16.92,35.256,20.512,54.944l-7.384-7.384l-11.312,11.312l15.48,15.472
		C430.744,472.416,418.28,480,404,480z"/>
	<path style="fill:#333333;" d="M156,168h-16c-8.824,0-16-7.176-16-16h-16c0,17.648,14.352,32,32,32v16h16v-16
		c17.648,0,32-14.352,32-32v-8c0-17.648-14.352-32-32-32h-16c-8.824,0-16-7.176-16-16v-8c0-8.824,7.176-16,16-16h16
		c8.824,0,16,7.176,16,16h16c0-17.648-14.352-32-32-32V40h-16v16c-17.648,0-32,14.352-32,32v8c0,17.648,14.352,32,32,32h16
		c8.824,0,16,7.176,16,16v8C172,160.824,164.824,168,156,168z"/>
</g>
<g>
</g>
<g>
</g>
<g>
</g>
<g>
</g>
<g>
</g>
<g>
</g>
<g>
</g>
<g>
</g>
<g>
</g>
<g>
</g>
<g>
</g>
<g>
</g>
<g>
</g>
<g>
</g>
<g>
</g>
</svg>
