<?xml version="1.0" encoding="iso-8859-1"?>
<!-- Generator: Adobe Illustrator 19.0.0, SVG Export Plug-In . SVG Version: 6.00 Build 0)  -->
<svg version="1.1" id="Capa_1" xmlns="http://www.w3.org/2000/svg" xmlns:xlink="http://www.w3.org/1999/xlink" x="0px" y="0px"
	 viewBox="0 0 496 496" style="enable-background:new 0 0 496 496;" xml:space="preserve">
<circle style="fill:#FFA64D;" cx="116.82" cy="168" r="112"/>
<g>
	<path style="fill:#333333;" d="M108.82,215.592V232h16v-16.408c13.536-1.96,24-13.528,24-27.592c0-15.44-12.56-28-28-28h-8
		c-6.616,0-12-5.384-12-12s5.384-12,12-12h8c6.616,0,12,5.384,12,12v4h16v-4c0-14.064-10.464-25.632-24-27.592V104h-16v16.408
		c-13.536,1.96-24,13.528-24,27.592c0,15.44,12.56,28,28,28h8c6.616,0,12,5.384,12,12s-5.384,12-12,12h-8c-6.616,0-12-5.384-12-12
		v-4h-16v4C84.82,202.064,95.284,213.632,108.82,215.592z"/>
	<path style="fill:#333333;" d="M477.708,304h7.112v-88c0-30.896-19.608-57.24-47-67.432c23.312-13.992,39-39.448,39-68.568
		c0-44.112-35.888-80-80-80s-80,35.888-80,80c0,35.72,23.536,66.024,55.904,76.272c-5.984,4.032-11.456,8.912-16.104,14.72
		l0.128,0.104l-71.344,41.192c-5.016,2.896-8.832,7.024-11.544,11.712H223.7l-48,104H3.18l27,144h15.776
		c3.576,13.768,16,24,30.864,24s27.288-10.232,30.864-24h58.272c3.576,13.768,16,24,30.864,24c17.648,0,32-14.352,32-32
		c0-12.784-7.584-23.752-18.44-28.88l18.136-96.736L258.02,272h42.8v-0.024c0.208,0,0.416,0.04,0.624,0.04
		c5.544,0,11.016-1.464,15.952-4.304l23.424-13.528V296v8v147.72l-15.792,10.528c-5.144,3.424-8.208,9.152-8.208,15.328
		c0,10.16,8.264,18.424,18.424,18.424h53.576c8.824,0,16-7.176,16-16v-2.424v-20.792l11.128-55.648l11.832,51.272l-14.752,9.84
		c-5.144,3.424-8.208,9.152-8.208,15.328c0,10.16,8.264,18.424,18.424,18.424h53.576c8.824,0,16-7.176,16-16v-16v-16L477.708,304z
		 M392.532,205.856l-16-27.712l27.712-16c2.384-1.376,4.984-2.024,7.568-2.088c0.192,0,0.376-0.032,0.56-0.032
		c5.488,0.056,10.8,2.904,13.728,7.976c4.408,7.64,1.784,17.448-5.856,21.856L392.532,205.856z M332.82,80c0-35.288,28.712-64,64-64
		s64,28.712,64,64s-28.712,64-64,64S332.82,115.288,332.82,80z M76.82,480c-8.824,0-16-7.176-16-16s7.176-16,16-16s16,7.176,16,16
		S85.644,480,76.82,480z M196.82,480c-8.824,0-16-7.176-16-16s7.176-16,16-16s16,7.176,16,16S205.644,480,196.82,480z
		 M194.636,432.224c-13.88,0.96-25.288,10.704-28.688,23.776h-58.272c-3.576-13.768-16-24-30.864-24s-27.288,10.232-30.864,24H43.46
		l-21-112h188.72L194.636,432.224z M247.62,256l-32,72h-22.296l40.616-88h35.608c-0.008,5.448,1.232,10.952,4.144,16H247.62z
		 M309.388,253.856c-3.696,2.128-8,2.696-12.136,1.6c-4.128-1.104-7.576-3.752-9.712-7.456c-4.408-7.64-1.784-17.448,5.856-21.856
		l69.28-40l16,27.712L309.388,253.856z M428.244,203.712c12.368-7.144,18.016-21.344,15.088-34.608
		c15.32,10.008,25.488,27.272,25.488,46.896v72h-112v-43.048L428.244,203.712z M419.06,304l-28.8,144h-33.44V304H419.06z
		 M335.244,480c-1.336,0-2.424-1.088-2.424-2.424c0-0.816,0.4-1.56,1.08-2.016L351.244,464h37.576l0.008,16H335.244z M435.38,304
		h26.24l15.16,144h-33.592l-19.608-84.984L435.38,304z M476.828,480h-53.592c-1.328,0-2.416-1.088-2.416-2.424
		c0-0.816,0.4-1.56,1.08-2.016L439.244,464h37.576L476.828,480z"/>
	<rect x="164.82" y="160" style="fill:#333333;" width="16" height="16"/>
	<rect x="52.82" y="160" style="fill:#333333;" width="16" height="16"/>
</g>
<g>
</g>
<g>
</g>
<g>
</g>
<g>
</g>
<g>
</g>
<g>
</g>
<g>
</g>
<g>
</g>
<g>
</g>
<g>
</g>
<g>
</g>
<g>
</g>
<g>
</g>
<g>
</g>
<g>
</g>
</svg>
